<?xml version="1.0" encoding="utf-8"?>
<!-- Svg Vector Icons : http://www.onlinewebfonts.com/icon -->
<!DOCTYPE svg PUBLIC "-//W3C//DTD SVG 1.1//EN" "http://www.w3.org/Graphics/SVG/1.1/DTD/svg11.dtd">
<svg version="1.1" xmlns="http://www.w3.org/2000/svg" xmlns:xlink="http://www.w3.org/1999/xlink" x="0px" y="0px" viewBox="0 0 1000 1000" enable-background="new 0 0 1000 1000" xml:space="preserve">
<metadata> Svg Vector Icons : http://www.onlinewebfonts.com/icon </metadata>
<g><g transform="translate(0.000000,511.000000) scale(0.100000,-0.100000)"><path d="M4191.5,4739.1c-1517.2-170.1-2908.6-1156-3610.1-2554.4C124.6,1271.1-15.3,173.3,196.8-849.8c284.3-1379.7,1223.6-2587,2500.8-3216.3c1785.3-878.7,3941.1-522.1,5348.8,887.9c713.2,710.8,1165.3,1615.1,1321.4,2636c74.6,489.4,44.3,1200.3-76.9,1713l-37.3,167.8l-386.9-377.6l-386.9-375.2l-2.3-421.8c-2.3-608.3-81.6-1006.8-303-1526.6C7708.5-2464.9,6683-3299.3,5506-3539.4C4205.5-3805,2835.1-3348.2,1972.8-2367c-615.3,699.2-939.2,1552.2-939.2,2468.2c0,1041.8,379.9,1953.1,1111.7,2663.9c382.2,370.6,706.2,589.6,1158.3,780.8c463.8,195.8,927.6,289,1452,289c587.3,0,1109.4-118.9,1626.8-372.9l279.7-135.2l335.6,333.3l335.6,333.3l-128.2,83.9c-533.7,340.3-1230.6,582.7-1929.8,666.6C5042.2,4771.7,4454.9,4769.4,4191.5,4739.1z"/><path d="M9332.9,4091.1l-519.7-39.6L6638.7,1877L4464.2-297.4l-853,755.1c-470.8,414.8-864.7,755.1-876.3,755.1c-32.6,0-804.1-692.2-804.1-720.2c0-30.3,2538.1-2484.5,2570.7-2484.5c16.3,0,5262.6,5929.1,5372.1,6073.6c30.3,39.6,35,55.9,11.7,53.6C9868.9,4133.1,9619.6,4114.5,9332.9,4091.1z"/></g></g>
</svg>