<?xml version="1.0" encoding="utf-8"?>
<!-- Svg Vector Icons : http://www.onlinewebfonts.com/icon -->
<!DOCTYPE svg PUBLIC "-//W3C//DTD SVG 1.1//EN" "http://www.w3.org/Graphics/SVG/1.1/DTD/svg11.dtd">
<svg version="1.1" xmlns="http://www.w3.org/2000/svg" xmlns:xlink="http://www.w3.org/1999/xlink" x="0px" y="0px" viewBox="0 0 1000 1000" enable-background="new 0 0 1000 1000" xml:space="preserve">
<metadata> Svg Vector Icons : http://www.onlinewebfonts.com/icon </metadata>
<g><g transform="translate(0.000000,511.000000) scale(0.100000,-0.100000)"><path d="M1966.2,2926.3c-118.7-53.6-195.2-157-227.8-312l-11.5-53.6H978.6H230.2l-65.1-65.1c-45.9-45.9-65.1-82.3-65.1-126.3c0-76.6,49.8-162.7,109.1-189.5c30.6-13.4,292.8-21.1,780.9-21.1H1727v-411.5v-411.5h-526.4c-591.4,0-622.1-5.7-671.8-128.2c-36.4-82.3-9.6-178,63.2-235.4c45.9-36.4,76.6-38.3,591.4-38.3H1727V522.2V110.7h-325.4c-357.9,0-413.4-13.4-455.5-105.3c-40.2-90-28.7-179.9,32.5-241.2l55.5-55.5h346.5H1727v-411.5v-411.5h-135.9c-128.2,0-139.7-3.8-201-65.1c-72.7-72.7-84.2-147.4-38.3-239.3c38.3-70.8,105.3-97.6,248.8-97.6h120.6l30.6-112.9c24.9-90,47.9-128.2,118.7-189.5c109.1-95.7,199.1-118.7,474.7-118.7h218.2l44-118.7c82.3-237.3,254.6-440.2,468.9-560.8c394.3-222,914.9-143.6,1228.8,183.8c105.3,109.1,206.7,283.3,237.3,402l24.9,93.8h1351.3h1351.3l24.9-93.8c51.7-201,241.2-444.1,442.1-566.6c321.6-195.2,759.9-191.4,1073.8,9.6c195.2,126.3,344.5,315.8,417.3,528.3l38.3,112.9l315.8,5.7l317.7,3.8v1022.1V104.9l-819.2,815.4l-817.3,817.3h-606.8h-604.8l-7.7,465.1c-5.7,430.7-7.6,468.9-47.9,539.8c-51.7,95.7-111,153.1-201,191.4c-63.2,24.9-342.6,28.7-2411.7,28.7C2153.8,2962.6,2038.9,2960.7,1966.2,2926.3z M6627,522.2v-2038.5H5599.1H4569.3l-32.5,111c-88,302.4-382.8,578-706.3,664.2c-134,36.4-382.8,36.4-520.6,0c-317.7-82.3-581.9-323.5-694.8-635.5l-51.7-139.7h-206.7H2148V522.2v2038.5h2239.5H6627V522.2z M8795.6,631.3L9498-71.2l-3.8-717.8l-5.7-717.8l-107.2-5.7l-107.2-5.7l-51.7,139.7c-84.2,233.5-277.5,453.6-493.8,562.7C8453-676,8091.2-676,7802.2-817.6c-214.4-105.3-436.4-363.7-501.5-587.6l-32.5-111h-109.1h-111v1426v1426h522.5h520.6L8795.6,631.3z M3840.1-1179.4c114.8-55.5,216.3-156.9,283.3-283.3c36.4-68.9,44-111,44-264.1s-7.7-195.2-44-264.1c-67-126.3-168.4-227.8-287.1-285.2c-147.4-72.7-363.7-74.6-514.9-7.6c-118.7,53.6-260.3,197.1-315.8,323.5c-55.5,124.4-55.5,342.6-1.9,467c47.9,103.3,179.9,254.6,262.2,296.7C3451.5-1099,3664-1093.3,3840.1-1179.4z M8518-1171.7c206.7-90,356-321.6,356-555.1c0-231.6-149.3-463.2-356-557c-153.1-67-369.4-65.1-516.8,7.6c-201,97.6-321.6,279.5-336.9,501.5c-9.6,162.7,15.3,264.1,97.6,384.7C7932.3-1137.3,8236.7-1049.2,8518-1171.7z"/><path d="M3495.5-1535.4c-67-26.8-122.5-112.9-122.5-193.3c0-88.1,70.8-181.8,151.2-199.1c116.8-24.9,250.7,82.3,250.7,201c0,70.8-57.4,155-124.4,183.8C3575.9-1512.4,3553-1512.4,3495.5-1535.4z"/><path d="M8183.1-1543.1c-63.2-28.7-120.6-114.8-120.6-183.8c0-70.8,57.4-155,128.2-183.7c195.2-82.3,363.7,160.8,222,317.7C8349.6-1523.9,8267.3-1506.7,8183.1-1543.1z"/></g></g>
</svg>