<?xml version="1.0" encoding="utf-8"?>
<!-- Svg Vector Icons : http://www.onlinewebfonts.com/icon -->
<!DOCTYPE svg PUBLIC "-//W3C//DTD SVG 1.1//EN" "http://www.w3.org/Graphics/SVG/1.1/DTD/svg11.dtd">
<svg version="1.1" xmlns="http://www.w3.org/2000/svg" xmlns:xlink="http://www.w3.org/1999/xlink" x="0px" y="0px" viewBox="0 0 1000 1000" enable-background="new 0 0 1000 1000" xml:space="preserve">
<metadata> Svg Vector Icons : http://www.onlinewebfonts.com/icon </metadata>
<g><g transform="translate(0.000000,400.000000) scale(0.100000,-0.100000)"><path d="M1837.7,2786.1c-205-42.2-274-65.2-458-143.7C500.1,2261-26.9,1287.5,126.4,333.1c40.2-241.5,139.9-523.2,258.7-728.2l95.8-168.6v-1318.5c0-743.6,7.7-1368.3,19.2-1431.5c23-147.6,86.2-268.3,187.8-362.2c143.7-130.3,224.2-155.2,534.7-164.8l272.1-7.7l11.5-76.7c26.8-149.5,172.5-404.3,316.2-548.1c461.9-461.9,1193.9-459.9,1657.7,5.7c143.7,145.6,258.7,343,304.7,517.4l23,95.8l977.4,9.6c1038.7,9.6,1023.3,9.6,1153.7,109.2c57.5,44.1,67.1,46,95.8,17.2c74.7-65.1,222.3-113.1,389-122.6l164.8-9.6l32.6-116.9c136.1-490.6,619-854.7,1132.6-854.7c528.9,0,1002.3,377.5,1140.2,908.4c19.2,74.7,36.4,120.7,36.4,99.6c1.9-32.6,19.2-34.5,256.8-26.8c222.3,5.8,266.4,13.4,362.2,57.5c126.5,59.4,235.7,164.8,302.8,295.1l47.9,93.9v1101.9v1101.9l-44.1,143.7c-80.5,254.9-191.6,433.1-657.3,1054c-521.3,695.6-663.1,847-898.8,965.9c-174.4,88.2-205,90.1-1193.9,84.3l-933.3-5.7v279.8c0,274-1.9,281.7-59.4,396.7c-32.6,65.2-93.9,147.6-136.1,184c-145.6,126.5-153.3,126.5-1144.1,126.5h-891.1l-153.3,149.5c-345,333.5-720.6,530.8-1159.4,607.5C2408.8,2834,2046.6,2830.2,1837.7,2786.1z M2646.4,2393.2c745.5-176.3,1268.7-766.6,1360.6-1529.3c24.9-210.8,13.4-368-40.2-603.7C3827-347.2,3367-832.1,2748-1021.8c-153.3-46-197.4-51.7-484.8-51.7c-276-1.9-335.4,3.8-469.5,42.2C1145.9-845.5,664.9-330,530.8,319.7c-38.3,185.9-40.2,528.9-1.9,711c101.6,492.5,431.2,939,877.7,1188.2c145.6,80.5,419.7,176.3,588.3,201.2C2153.9,2445,2485.5,2429.6,2646.4,2393.2z M5726.1,1609.4l53.7-46l5.7-2431.9c3.8-1707.5-1.9-2445.3-17.3-2479.8c-9.6-28.8-38.3-61.3-61.3-72.8c-30.7-15.3-297-21.1-969.7-17.2l-929.4,5.8l-23,95.8c-76.7,295.1-325.8,597.9-607.5,737.8c-172.5,84.3-366,134.2-530.8,134.2c-339.2,0-701.4-178.2-917.9-452.3c-92-116.9-205.1-343-222.3-450.4l-13.4-74.7h-239.6h-239.6l-65.2,65.1l-65.2,65.2v1151.7c0,634.3,5.7,1151.8,11.5,1151.8c5.7,0,44.1-24.9,82.4-53.7c107.3-84.3,285.5-185.9,436.9-249.1C2571.7-1799.8,3894-1203.8,4302.2-9.9c161,473.3,138,1054-61.3,1529.3l-57.5,136.1H4927h745.5L5726.1,1609.4z M8108.2,632.1c124.6-67.1,383.3-299,383.3-344.9c0-5.8-231.9-11.5-517.4-11.5c-601.8,0-659.2-11.5-820.2-168.6c-176.3-172.5-201.2-289.4-191.6-885.4c5.8-392.9,9.6-438.9,47.9-521.3c53.7-118.8,191.6-264.5,306.6-322l92-47.9l1054-9.6l1054-9.6v-797.2c0-868.1,0-873.9-109.2-929.4c-34.5-19.2-118.8-26.8-264.5-26.8c-205,0-210.8-1.9-212.7-42.2c0-24.9-13.4,11.5-28.8,80.5c-120.7,563.4-661.2,973.5-1226.5,931.4c-295.1-21.1-530.8-130.3-747.4-345c-151.4-151.4-256.8-325.8-306.6-504l-32.6-120.7H6462c-128.4,0-189.7,24.9-245.3,95.8c-32.6,38.3-36.4,3853.9-3.8,3911.4c9.6,21.1,47.9,55.6,80.5,76.7c59.4,36.4,93.9,36.4,904.5,32.6C7981.7,668.5,8044.9,666.6,8108.2,632.1z M9052.9-446.9c138-187.8,281.7-394.8,316.2-459.9c63.2-122.7,138-316.2,138-364.1c0-21.1-164.8-24.9-1008-21.1l-1008,5.8l-65.2,70.9l-65.2,72.8v435c0,482.9,5.8,511.7,115,565.3c59.4,30.7,136.1,34.5,695.6,34.5h626.7L9052.9-446.9z M2974.2-2936.3c161-76.7,302.8-218.5,385.2-385.2c59.4-120.7,63.2-141.8,63.2-322c0-176.3-5.7-203.1-61.3-320c-74.7-161-208.9-297-371.8-383.3c-116.9-59.4-132.2-63.2-333.4-63.2c-195.5,0-220.4,3.8-337.3,59.4c-226.1,107.3-396.7,331.5-442.7,580.7c-44.1,233.8,44.1,496.4,224.2,676.5c166.7,166.7,323.9,228,574.9,220.4C2822.8-2876.8,2864.9-2884.5,2974.2-2936.3z M8087.1-2942c161-82.4,295.1-220.4,371.8-381.3c57.5-118.8,61.3-143.7,61.3-329.6c0-197.4-1.9-203.1-74.7-341.1c-86.2-161-212.7-283.6-371.8-362.2c-99.7-49.8-128.4-53.7-320-53.7c-199.3,0-218.5,3.8-335.4,61.3c-477.2,233.8-596,849-239.6,1230.3c176.3,187.8,337.3,253,603.7,245.3C7943.4-2878.8,7977.9-2886.4,8087.1-2942z"/><path d="M2215.3,2234.2c-21.1-3.8-53.7-21.1-74.7-40.2c-80.5-70.9-88.2-126.5-88.2-718.7V909.9l-47.9-70.9c-26.8-38.3-47.9-97.7-47.9-128.4c0-49.8-36.4-95.8-228.1-291.3c-134.1-134.2-233.8-253-241.5-283.6c-42.2-166.7,122.6-297,274-216.6c28.7,15.3,145.6,122.6,262.5,239.6c168.6,170.6,220.4,212.7,264.5,212.7c76.7,0,157.1,46,216.6,126.5c74.7,97.7,76.7,237.6,3.8,348.8l-53.7,80.5v565.3c0,668.8-5.7,697.6-149.5,735.9C2276.6,2236.1,2236.3,2238,2215.3,2234.2z"/></g></g>
</svg>