<?xml version="1.0" encoding="utf-8"?>
<!-- Svg Vector Icons : http://www.onlinewebfonts.com/icon -->
<!DOCTYPE svg PUBLIC "-//W3C//DTD SVG 1.1//EN" "http://www.w3.org/Graphics/SVG/1.1/DTD/svg11.dtd">
<svg version="1.1" xmlns="http://www.w3.org/2000/svg" xmlns:xlink="http://www.w3.org/1999/xlink" x="0px" y="0px" viewBox="0 0 1000 1000" enable-background="new 0 0 1000 1000" xml:space="preserve">
<metadata> Svg Vector Icons : http://www.onlinewebfonts.com/icon </metadata>
<g><g transform="translate(0.000000,511.000000) scale(0.100000,-0.100000)"><path d="M258.9,4897.1c-55.5-26.8-91.9-61.3-118.7-114.8C100,4705.7,100,4703.7,100,789.5c0-4172.6-3.8-3988.9,88.1-4071.2c21.1-17.2,746.5-344.5,1615.5-725.4c1211.6-534,1596.3-694.8,1655.7-694.8c59.3,0,417.3,149.3,1569.5,656.5c821.1,361.7,1502.5,658.4,1512.1,658.4c11.5,0,677.6-290.9,1483.4-646.9c805.8-356,1498.7-654.6,1542.7-666.1c112.9-26.8,239.3,32.5,292.9,137.8l40.2,76.6v3916.2c0,4172.6,3.8,3988.9-88,4071.2c-21.1,17.2-746.5,344.5-1615.5,725.4c-1209.7,532.1-1596.3,694.8-1655.7,694.8c-59.3,1.9-415.4-149.3-1569.5-656.5C4150.2,3903.7,3470.7,3607,3459.2,3607c-9.6,0-687.1,294.8-1502.5,654.6c-815.4,359.9-1514,658.4-1550.4,662.3C362.3,4931.5,310.6,4921.9,258.9,4897.1z M6259.4-1115l-5.7-1782l-1238.4-543.6c-683.3-300.5-1248-545.5-1259.4-545.5c-13.4,0-17.2,1173.3-15.3,3550.6l5.7,3552.5L5000,3668.2l1253.7,551.3l5.7-1778.2C6261.4,1465.2,6261.4-136.9,6259.4-1115z M8043.3,3683.6c658.4-289,1219.3-537.9,1249.9-551.3l51.7-23V-441.2v-3548.7l-42.1,11.5c-24.9,5.7-591.4,252.6-1259.4,545.5L6827.9-2897l-5.7,3562.1c-1.9,1960,1.9,3558.2,11.5,3552.5C6841.3,4213.7,7386.8,3972.6,8043.3,3683.6z M1956.7,3652.9L3172.1,3117l5.7-3560.1l3.8-3560.2l-109.1,49.8c-61.2,26.8-606.7,266-1211.6,532.1c-604.8,266.1-1123.6,495.7-1154.2,509.1l-51.7,23V661.3v3548.7l44-11.5C722.1,4192.7,1288.7,3947.7,1956.7,3652.9z"/></g></g>
</svg>