<?xml version="1.0" encoding="utf-8"?>
<!-- Svg Vector Icons : http://www.onlinewebfonts.com/icon -->
<!DOCTYPE svg PUBLIC "-//W3C//DTD SVG 1.1//EN" "http://www.w3.org/Graphics/SVG/1.1/DTD/svg11.dtd">
<svg version="1.1" xmlns="http://www.w3.org/2000/svg" xmlns:xlink="http://www.w3.org/1999/xlink" x="0px" y="0px" viewBox="0 0 1000 1000" enable-background="new 0 0 1000 1000" xml:space="preserve">
<metadata> Svg Vector Icons : http://www.onlinewebfonts.com/icon </metadata>
<g><path d="M724.2,881.3H129.5c-63,0-118.9-56-118.9-118.9V398.6c-7-63,49-118.9,118.9-118.9h356.8c14,0,35,14,35,35s-21,28-35,28H129.5c-28,0-56,28-56,56v363.8c0,28,28,56,56,56h601.6c28,0,56-28,56-56V622.4c0-14,14-35,35-35c21,0,35,14,35,35v139.9C843.1,825.3,794.1,881.3,724.2,881.3z"/><path d="M486.3,454.5H38.6v97.9h503.7L486.3,454.5z"/><path d="M717.2,664.4c-153.9,0-272.8-125.9-272.8-272.8c0-146.9,125.9-272.8,272.8-272.8c146.9,0,272.8,125.9,272.8,272.8C990,538.5,871.1,664.4,717.2,664.4z M717.2,181.7c-118.9,0-209.9,90.9-209.9,209.9s90.9,209.9,209.9,209.9c118.9,0,209.9-90.9,209.9-209.9S836.1,181.7,717.2,181.7z"/><path d="M717.2,398.6L717.2,398.6c-7,0-14,0-21-7l-77-83.9c-7-7-7-28,0-35c7-7,28-7,35,0l56,63l56-63c7-7,28-14,35,0c7,7,14,28,0,35l-77,83.9C731.2,398.6,724.2,398.6,717.2,398.6z"/><path d="M801.1,398.6H633.2c-14,0-21-14-21-28s14-28,21-28h167.9c14,0,21,14,21,28S815.1,398.6,801.1,398.6z"/><path d="M808.1,475.5H626.2c-14,0-21-14-21-28s14-21,28-21h181.9c14,0,21,14,21,28C836.1,468.5,822.1,475.5,808.1,475.5z"/><path d="M717.2,538.5c-14,0-21-14-21-28V370.6c0-14,14-28,21-28c7,0,21,14,21,28v139.9C745.1,524.5,731.2,538.5,717.2,538.5z"/></g>
</svg>