<?xml version="1.0" encoding="utf-8"?>
<!-- Svg Vector Icons : http://www.onlinewebfonts.com/icon -->
<!DOCTYPE svg PUBLIC "-//W3C//DTD SVG 1.1//EN" "http://www.w3.org/Graphics/SVG/1.1/DTD/svg11.dtd">
<svg version="1.1" xmlns="http://www.w3.org/2000/svg" xmlns:xlink="http://www.w3.org/1999/xlink" x="0px" y="0px" viewBox="0 0 1000 1000" enable-background="new 0 0 1000 1000" xml:space="preserve">
<metadata> Svg Vector Icons : http://www.onlinewebfonts.com/icon </metadata>
<g><g><path d="M867.5,701c0,0,0-292.9,0-384.7s-91.9-183.8-183.8-183.8c-61.3,0-61.3,0-61.3,0V10L438.8,193.8l183.8,183.8V255c0,0,30.6,0,61.3,0s61.3,30.6,61.3,61.3s0,384.7,0,384.7c-36.4,21.1-61.3,60.3-61.3,105.3c0,67.9,54.6,122.5,122.5,122.5s122.5-54.6,122.5-122.5C928.8,761.3,903.9,722,867.5,701z M806.3,867.5c-33.5,0-61.3-27.8-61.3-61.3s27.8-61.3,61.3-61.3s61.3,27.8,61.3,61.3S839.7,867.5,806.3,867.5z M377.5,745c0,0-30.6,0-61.3,0S255,714.4,255,683.8s0-384.7,0-384.7c36.4-21.1,61.3-60.3,61.3-105.3c0-67.9-54.6-122.5-122.5-122.5S71.3,125.8,71.3,193.8c0,45,24.9,84.2,61.3,105.3c0,0,0,292.9,0,384.7s91.9,183.8,183.8,183.8c61.3,0,61.3,0,61.3,0V990l183.8-183.8L377.5,622.5V745z M193.8,255c-33.5,0-61.3-27.8-61.3-61.3s27.8-61.3,61.3-61.3s61.3,27.8,61.3,61.3S227.2,255,193.8,255z"/></g></g>
</svg>