<?xml version="1.0" encoding="utf-8"?>
<!-- Svg Vector Icons : http://www.onlinewebfonts.com/icon -->
<!DOCTYPE svg PUBLIC "-//W3C//DTD SVG 1.1//EN" "http://www.w3.org/Graphics/SVG/1.1/DTD/svg11.dtd">
<svg version="1.1" xmlns="http://www.w3.org/2000/svg" xmlns:xlink="http://www.w3.org/1999/xlink" x="0px" y="0px" viewBox="0 0 1000 1000" enable-background="new 0 0 1000 1000" xml:space="preserve">
<metadata> Svg Vector Icons : http://www.onlinewebfonts.com/icon </metadata>
<g><g transform="translate(0.000000,512.000000) scale(0.100000,-0.100000)"><path d="M2054.4,4994.3c-67-15.3-187.6-59.4-268.1-99.6c-206.8-99.6-446.1-338.9-545.7-543.8c-224-457.6-137.9-963.1,225.9-1328.8c172.3-174.2,348.5-275.7,580.1-335.1l80.4-21.1v-201c0-197.2,1.9-202.9,55.5-258.5c84.2-82.3,201-70.8,254.7,26.8c13.4,23,28.7,132.1,34.5,241.2l9.6,199.1l103.4,26.8c379.1,95.7,750.6,469.1,853.9,859.7c36.4,136,40.2,404,7.7,534.2c-126.4,513.1-584,896.1-1099,920.9C2238.2,5019.2,2131,5013.5,2054.4,4994.3z M2565.6,4642c229.8-70.8,392.5-212.5,492.1-430.8c147.4-323.6,88.1-710.3-147.4-959.2c-360-381-1039.7-323.6-1319.2,109.1c-103.4,158.9-141.7,315.9-130.2,539.9c7.7,149.4,19.1,201,68.9,306.3c101.5,218.3,315.9,398.3,532.3,449.9C2196.1,4688,2439.3,4680.3,2565.6,4642z"/><path d="M5238.5,4986.7c-30.6-19.2-287.2-268.1-568.7-551.4c-497.8-499.7-513.1-517-513.1-589.7c0-74.7,15.3-91.9,553.3-629.9c513.1-513.1,557.2-551.4,620.3-553.3c99.6-1.9,166.6,63.2,166.6,166.6c0,74.7-11.5,88.1-382.9,459.5l-381,384.9l271.9-5.7c164.7-3.8,300.6,1.9,342.7,15.3c134,38.3,166.6,202.9,59.3,287.2c-44,34.5-78.5,38.3-367.6,38.3h-317.8l388.7,388.7c365.7,367.6,386.8,390.6,386.8,459.5C5497,4998.2,5362.9,5065.2,5238.5,4986.7z M4635.4,3843.6c0-59.3-3.8-67-28.7-45.9c-34.5,28.7-36.4,61.3-5.7,91.9C4633.5,3922.1,4635.4,3920.2,4635.4,3843.6z"/><path d="M5700,3964.3c-68.9-68.9-68.9-180,0-245.1c45.9-44,65.1-45.9,348.4-57.4c337-13.4,386.8-1.9,421.2,97.7c28.7,80.4-3.8,164.7-80.4,204.9c-44.1,24.9-128.3,34.5-350.4,40.2l-291,7.7L5700,3964.3z"/><path d="M6730,3816.8c-55.5-23-103.4-93.8-103.4-153.2c0-68.9,42.1-122.5,147.4-181.9c51.7-30.6,155.1-103.4,233.6-166.6c109.1-86.2,155.1-111,206.8-111c120.6,0,199.1,137.9,139.8,247c-47.9,90-478.7,386.8-557.2,382.9C6781.7,3834.1,6751.1,3826.4,6730,3816.8z"/><path d="M7405.9,3089.3c-76.6-61.3-80.4-126.4-13.4-275.7c34.5-72.8,76.6-197.2,97.6-277.6c40.2-162.7,82.3-212.5,181.9-212.5c90,0,164.7,68.9,164.7,153.2c0,155.1-151.3,564.8-227.9,624.2C7559.1,3139,7461.4,3133.3,7405.9,3089.3z"/><path d="M7610.8,2122.4c-74.7-51.7-88.1-120.6-80.4-430.8l5.7-291l53.6-46c59.4-49.8,155.1-61.3,206.8-21.1c65.1,49.8,74.7,105.3,74.7,405.9V2040l-55.5,55.5C7752.5,2156.8,7674,2168.3,7610.8,2122.4z"/><path d="M2182.7,1923.2l-55.5-55.5v-310.2v-310.2l55.5-55.5c70.8-70.8,157-74.7,222.1-9.6c61.3,61.3,70.8,130.2,63.2,440.4c-5.7,262.3-5.7,264.2-59.4,310.2C2334,1996,2253.5,1992.2,2182.7,1923.2z"/><path d="M7610.8,1107.6c-74.7-51.7-88.1-120.6-80.4-430.8l5.7-291l53.6-46c59.4-49.8,155.1-61.3,206.8-21.1c65.1,49.8,74.7,105.3,74.7,405.9v300.6l-55.5,55.5C7752.5,1142,7674,1153.5,7610.8,1107.6z"/><path d="M2201.8,939.1c-65.1-49.8-74.7-105.3-74.7-405.9V232.6l55.5-55.5c63.2-61.3,141.7-72.8,204.9-26.8c74.7,51.7,88.1,120.6,80.4,430.8l-5.7,291l-53.6,45.9C2349.3,967.8,2253.5,979.3,2201.8,939.1z"/><path d="M7610.8,92.8c-74.7-51.7-88.1-120.6-80.4-430.8l5.7-291l53.6-46c74.7-63.2,155.1-59.3,225.9,9.6l55.5,55.5v310.2V10.5L7815.6,66C7752.5,127.3,7674,138.8,7610.8,92.8z"/><path d="M2201.8-75.7c-65.1-49.8-74.7-105.3-74.7-405.9v-300.6l55.5-55.5c70.8-70.8,157-74.7,222.1-9.6c61.3,61.3,70.8,130.2,63.2,440.4c-5.7,262.3-5.7,264.2-59.4,310.2C2349.3-47,2253.5-35.5,2201.8-75.7z"/><path d="M7589.7-939.2l-53.6-45.9v-329.3v-329.3l53.6-46c74.7-63.2,155.1-59.3,225.9,9.6l55.5,55.5v310.2v310.2l-55.5,55.5C7744.8-879.8,7664.4-876,7589.7-939.2z"/><path d="M2201.8-1090.4c-65.1-49.8-74.7-105.3-74.7-405.9V-1797l55.5-55.5c59.4-59.3,101.5-67,183.8-36.4c88.1,34.5,109.1,122.5,101.5,444.2l-5.7,287.2l-53.6,45.9C2349.3-1061.7,2253.5-1050.2,2201.8-1090.4z"/><path d="M7589.7-1954c-51.7-44-53.6-53.6-59.3-256.6l-7.7-208.7l-155.1-51.7c-197.2-65.1-346.6-157-490.2-300.6c-471-469.1-471-1173.7-3.8-1642.8c375.3-377.2,875-465.3,1340.3-237.4c202.9,99.6,444.2,340.8,541.8,541.8c99.6,202.9,135.9,373.4,124.5,574.4c-34.5,524.6-436.5,986-955.4,1099l-53.6,11.5v202.9c0,197.2-1.9,203-55.5,258.5C7744.8-1894.6,7664.4-1890.8,7589.7-1954z M7894.1-2771.5c302.5-65.1,539.9-285.3,618.4-580.2c51.7-191.5,34.5-446.1-44-612.7c-80.4-174.2-208.7-302.5-379.1-388.7c-124.5-59.3-162.7-68.9-323.6-78.5c-225.9-11.5-382.9,26.8-541.8,130.2c-423.1,271.9-490.1,917.1-135.9,1292.4C7287.2-2798.3,7593.5-2708.3,7894.1-2771.5z"/><path d="M2209.5-2122.5c-21.1-24.9-44-61.3-51.7-82.3c-26.8-90,130.2-538,222.1-635.7c51.7-55.5,145.5-57.4,212.5-5.7c78.5,61.3,78.5,114.9,3.8,294.8c-36.4,90-80.4,216.4-95.7,283.4c-17.2,74.7-42.1,134-68.9,155.1C2372.3-2065,2257.4-2070.8,2209.5-2122.5z"/><path d="M4616.2-2419.2c-70.8-26.8-114.9-90-114.9-166.6c0-74.7,11.5-88.1,382.9-459.5l381-384.8l-271.9,5.7c-164.7,3.8-300.6-1.9-342.7-15.3c-134-38.3-166.6-202.9-59.3-287.2c44-34.5,78.5-38.3,367.6-38.3h317.8l-388.7-388.7c-365.7-367.6-386.8-390.6-386.8-459.5c0-91.9,68.9-166.6,151.3-166.6c72.8,0,111.1,34.5,725.6,651c430.8,434.6,463.4,471,463.4,534.2c0,65.1-34.5,103.4-549.5,618.4C4757.9-2444.1,4692.8-2390.5,4616.2-2419.2z M5420.4-3602.5c0-13.4-13.4-34.5-28.7-47.9c-24.9-21.1-28.7-13.4-28.7,47.9c0,61.3,3.8,68.9,28.7,47.9C5407-3568,5420.4-3589.1,5420.4-3602.5z"/><path d="M2672.9-3008.9c-49.8-47.9-63.2-137.9-28.7-199.1c28.7-55.5,266.1-241.2,405.9-317.8c147.4-80.4,218.3-78.5,283.4,3.8c78.5,99.6,40.2,197.2-109.1,283.4c-51.7,30.6-155.1,103.4-233.6,166.6C2827.9-2943.8,2751.4-2928.5,2672.9-3008.9z"/><path d="M3597.6-3432.1c-65.1-34.5-95.7-122.5-68.9-199.1c34.5-99.6,103.4-120.6,430.8-130.2l291-7.7l47.9,47.9c67,68.9,68.9,180,1.9,243.2c-49.8,47.9-74.7,51.7-442.3,63.2C3704.9-3409.1,3632.1-3412.9,3597.6-3432.1z"/></g></g>
</svg>