<?xml version="1.0" encoding="utf-8"?>
<!-- Svg Vector Icons : http://www.onlinewebfonts.com/icon -->
<!DOCTYPE svg PUBLIC "-//W3C//DTD SVG 1.1//EN" "http://www.w3.org/Graphics/SVG/1.1/DTD/svg11.dtd">
<svg version="1.1" xmlns="http://www.w3.org/2000/svg" xmlns:xlink="http://www.w3.org/1999/xlink" x="0px" y="0px" viewBox="0 0 1000 1000" enable-background="new 0 0 1000 1000" xml:space="preserve">
<metadata> Svg Vector Icons : http://www.onlinewebfonts.com/icon </metadata>
<g><g><g><path d="M943.9,164.1c-42-55.1-108-86.8-202-96.9c-7.6-0.8-15.6-1.3-23.9-1.3c-83.3,0-166.4,39.1-218,101.2C448.3,105,365.3,65.9,282,65.9c-8.3,0-16.2,0.5-24,1.3C164.2,77.3,98.2,109,56.2,164.1C14.5,218.7,1,292.8,15.9,384.2c21.8,132.7,193.5,294.2,331.6,424.1l3.2,3c38.4,36.2,71.6,67.4,93.3,90.7c2.9,3.3,29.3,32.1,58.1,32.1c29,0,54.8-29.3,57.2-32.1c23-24.9,60.3-60.3,97.1-95.1c136.5-129.5,306.3-290.6,327.9-422.7C999.1,292.8,985.6,218.8,943.9,164.1z M949.4,378.5C929.8,499,764.7,655.6,631.3,782c-36.5,34.6-74.3,70.3-98.5,96.6c-6,7.1-21.2,20.3-30.9,20.3c-9.3,0-24.5-12.1-32.1-20.6c-22.7-24.4-56.3-56.1-95.2-92.7l-3.2-3C237.3,656.5,70.4,499.4,50.5,378.5C37.3,297,48.6,232,84.1,185.4c35.8-47,93.9-74.2,177.5-83.2c6.6-0.7,13.3-1.1,20.4-1.1c80.3,0,160.1,41.2,203.4,105.1l14.6,21.4l14.5-21.4c43.3-63.9,123.1-105.1,203.5-105.1c7,0,13.8,0.4,20.3,1.1c83.7,9,141.8,36.2,177.7,83.3C951.5,232.1,962.8,297.1,949.4,378.5z"/></g></g><g></g><g></g><g></g><g></g><g></g><g></g><g></g><g></g><g></g><g></g><g></g><g></g><g></g><g></g><g></g></g>
</svg>