<?xml version="1.0" encoding="utf-8"?>
<!-- Svg Vector Icons : http://www.onlinewebfonts.com/icon -->
<!DOCTYPE svg PUBLIC "-//W3C//DTD SVG 1.1//EN" "http://www.w3.org/Graphics/SVG/1.1/DTD/svg11.dtd">
<svg version="1.1" xmlns="http://www.w3.org/2000/svg" xmlns:xlink="http://www.w3.org/1999/xlink" x="0px" y="0px" viewBox="0 0 1000 1000" enable-background="new 0 0 1000 1000" xml:space="preserve">
<metadata> Svg Vector Icons : http://www.onlinewebfonts.com/icon </metadata>
<g><path d="M374.3,759.3c-52.1,0-94.8,42.7-94.8,94.7c0,52.1,42.6,94.8,94.8,94.8c52.1,0,94.7-42.7,94.7-94.8C469,802,426.3,759.3,374.3,759.3z M371.9,896.7c-23.7,0-42.6-19.4-42.6-42.7c0-23.7,18.9-42.7,42.6-42.7c23.7,0,42.7,19,42.7,42.7C414.5,877.3,395.5,896.7,371.9,896.7z M705.8,759.3c-52.1,0-94.8,42.7-94.8,94.7c0,52.1,42.7,94.8,94.8,94.8s94.7-42.7,94.7-94.8C800.5,802,757.9,759.3,705.8,759.3z M703.4,896.7c-23.7,0-42.6-19.4-42.6-42.7c0-23.7,18.9-42.7,42.6-42.7c23.7,0,42.7,19,42.7,42.7C746.1,877.3,727.1,896.7,703.4,896.7z M819,527.2c1.4-2.4,171-426.3,171-426.3H283.8v39.8h620.9c0,0-112.2,332.6-125,353l-5.2,9.4c-8.1,14.7-10.9,19.9-38.9,19.9H313.1C223.6,236.4,176.2,51.2,176.2,51.2H98.1H10v43.6h117.9l176.2,569.3h477.4c11.9,0,18.9-14.7,18.9-27c0-12.3-6.1-19-18-19H350.1c0,0-9-18.9-18.5-49.2h411.6C792,569,805.7,550.9,819,527.2z"/></g>
</svg>