<?xml version="1.0" encoding="utf-8"?>
<!-- Svg Vector Icons : http://www.onlinewebfonts.com/icon -->
<!DOCTYPE svg PUBLIC "-//W3C//DTD SVG 1.1//EN" "http://www.w3.org/Graphics/SVG/1.1/DTD/svg11.dtd">
<svg version="1.1" xmlns="http://www.w3.org/2000/svg" xmlns:xlink="http://www.w3.org/1999/xlink" x="0px" y="0px" viewBox="0 0 1000 1000" enable-background="new 0 0 1000 1000" xml:space="preserve">
<metadata> Svg Vector Icons : http://www.onlinewebfonts.com/icon </metadata>
<g><g transform="translate(0.000000,512.000000) scale(0.100000,-0.100000)"><path d="M4749.8,5009.2c-1035.9-94-1927.9-807.6-2248.2-1797.4c-90.2-274.3-124.7-498.8-124.7-809.5c0-951.5,477.6-1780.2,1314-2273.2c97.8-57.5,165-107.4,149.6-113.2c-15.3-5.8-109.3-32.6-209.1-61.4c-99.8-28.8-274.3-88.2-389.4-134.3C1521.3-872.2,347.3-2497,257.2-4321.3c-7.7-147.7-5.8-297.3,3.8-331.9c32.6-132.4,209.1-170.7,301.2-69.1c47.9,55.6,51.8,72.9,65.2,306.9C713.7-2777.1,1638.3-1367.1,3084.7-667C3669.8-383,4195.4-254.5,4849.5-231.5C5578.5-206.6,6259.5-350.4,6904-665c1444.5-707.8,2382.5-2131.2,2457.3-3731.1c11.5-255.1,13.4-270.5,63.3-326.1c61.4-67.1,155.4-76.7,237.9-23c80.5,51.8,94,111.3,80.5,376c-61.4,1160.5-517.9,2223.3-1312.1,3052C7815.2-672.7,7055.5-223.8,6205.7,4.4l-84.4,21.1l189.9,113.2c677.2,402.8,1116.4,1030.1,1262.2,1803.2c48,245.5,48,675.2,0,920.8c-180.3,959.1-863.2,1738-1780.2,2031.5C5465.3,4999.6,5087.4,5041.8,4749.8,5009.2z M5292.6,4625.6c343.4-48,763.5-218.7,1033.9-422c819.1-615.8,1122.2-1688.1,748.1-2637.6c-199.5-504.5-621.5-953.4-1112.6-1187.4c-170.7-80.6-374.1-147.7-556.3-184.2c-174.6-34.5-650.3-34.5-824.9,0c-441.2,88.3-836.4,295.4-1151,604.3c-314.6,310.8-496.8,629.2-619.6,1083.8c-44.1,165-48,220.6-48,519.9c0,299.2,3.8,354.9,48,519.8c118.9,441.2,301.2,767.3,598.5,1064.6C3905.7,4481.7,4609.7,4721.5,5292.6,4625.6z"/></g></g>
</svg>